<svg height="448pt" viewBox="0 0 448 448" width="448pt" xmlns="http://www.w3.org/2000/svg"><path d="m328 183.0625v-63.0625h-208v63.0625l104 63.5625zm-104-47.0625h80v16h-80zm-80 0h56v16h-56zm0 32h160v16h-160zm0 0"/><path d="m88 182.265625v132.109375l74.3125-86.695312zm0 0"/><path d="m104 162.726562-8.648438 5.28125 8.648438 5.28125zm0 0"/><path d="m344 162.726562v10.5625l8.648438-5.28125zm0 0"/><path d="m360 314.375v-132.109375l-74.3125 45.414063zm0 0"/><path d="m224 0c-123.710938 0-224 100.289062-224 224s100.289062 224 224 224 224-100.289062 224-224c-.140625-123.652344-100.347656-223.859375-224-224zm152 336c0 4.417969-3.582031 8-8 8h-288c-4.417969 0-8-3.582031-8-8v-168c.011719-2.78125 1.46875-5.355469 3.847656-6.800781l28.152344-17.199219v-32c0-4.417969 3.582031-8 8-8h57.351562l50.480469-30.832031c2.558594-1.5625 5.777344-1.5625 8.335938 0l50.480469 30.832031h57.351562c4.417969 0 8 3.582031 8 8v32l28.167969 17.183594c2.375 1.449218 3.828125 4.03125 3.832031 6.816406zm0 0"/><path d="m224 89.375-23.953125 14.625h47.90625zm0 0"/><path d="m228.167969 262.832031c-2.558594 1.5625-5.777344 1.5625-8.335938 0l-43.695312-26.703125-78.746094 91.871094h253.21875l-78.746094-91.871094zm0 0"/></svg>