<?xml version="1.0" encoding="iso-8859-1"?>
<!-- Generator: Adobe Illustrator 19.0.0, SVG Export Plug-In . SVG Version: 6.00 Build 0)  -->
<svg version="1.1" id="Capa_1" xmlns="http://www.w3.org/2000/svg" xmlns:xlink="http://www.w3.org/1999/xlink" x="0px" y="0px"
	 viewBox="0 0 512.002 512.002" style="enable-background:new 0 0 512.002 512.002;" xml:space="preserve">
<path style="fill:#64B5F6;" d="M338.207,344.575l-63.997-64.104c-4.16-4.181-10.922-4.181-15.082-0.021
	c-2.005,2.005-3.136,4.714-3.136,7.552v149.434c0,4.586,2.944,8.661,7.296,10.112c1.088,0.363,2.219,0.555,3.371,0.555
	c3.349,0,6.528-1.579,8.533-4.267l63.997-85.33C342.367,354.26,341.94,348.33,338.207,344.575z"/>
<path style="fill:#1976D2;" d="M291.361,320.661l-63.997-21.332c-5.589-1.877-11.626,1.152-13.503,6.741
	c-0.725,2.197-0.725,4.565,0,6.741l42.665,127.995c1.451,4.352,5.546,7.296,10.133,7.296h0.661c4.821-0.299,8.832-3.797,9.792-8.533
	l21.332-106.662C299.51,327.616,296.481,322.368,291.361,320.661z"/>
<path style="fill:#2196F3;" d="M507.416,23.479c-3.392-2.368-7.872-2.56-11.456-0.491L90.644,257.645
	c-5.098,2.965-6.826,9.472-3.883,14.57c1.301,2.261,3.392,3.947,5.866,4.778l191.565,63.869l148.9,63.827
	c5.418,2.325,11.69-0.192,13.994-5.61c0.32-0.747,0.555-1.536,0.704-2.347l63.997-362.652
	C512.515,29.985,510.808,25.868,507.416,23.479z"/>
<g>
	<path style="fill:#1976D2;" d="M509.997,38.412c3.435-4.778,2.347-11.456-2.432-14.89c-4.267-3.072-10.112-2.581-13.802,1.152
		L215.61,318.037l80.274,27.732L509.997,38.412z"/>
	<path style="fill:#1976D2;" d="M26.071,420.263c-2.688,0-5.269-1.003-7.232-2.816c-5.312-4.885-10.56-9.92-15.701-15.082
		c-4.181-4.16-4.181-10.922-0.021-15.103s10.922-4.181,15.103,0c4.949,4.949,9.984,9.792,15.082,14.485
		c4.33,3.989,4.608,10.73,0.64,15.061C31.916,419.004,29.057,420.263,26.071,420.263z"/>
	<path style="fill:#1976D2;" d="M171.388,490.553c-10.282-0.043-20.522-1.088-30.591-3.179c-5.824-0.96-9.749-6.442-8.81-12.245
		c0.939-5.802,6.442-9.749,12.245-8.81c0.277,0.043,0.555,0.107,0.832,0.171c8.682,1.792,17.514,2.709,26.388,2.731h0.064h4.8
		c5.568-0.533,10.496,3.541,11.029,9.109c0.043,0.384,0.043,0.768,0.043,1.152c0.213,5.888-4.373,10.837-10.261,11.05h-5.568
		L171.388,490.553z M94.953,470.138c-1.707,0-3.392-0.405-4.906-1.195c-10.496-5.482-20.607-11.648-30.313-18.41
		c-4.736-3.52-5.717-10.197-2.197-14.933c3.349-4.501,9.642-5.653,14.357-2.581c8.938,6.293,18.282,11.989,27.946,17.066
		c5.226,2.709,7.274,9.152,4.565,14.378c-1.835,3.541-5.482,5.76-9.472,5.76L94.953,470.138z"/>
	<path style="fill:#1976D2;" d="M226.233,479.119c-5.888,0.043-10.709-4.693-10.752-10.581c-0.043-4.309,2.517-8.213,6.485-9.898
		c6.144-2.624,12.096-5.653,17.855-9.045c5.141-2.859,11.648-1.024,14.506,4.117c2.773,4.97,1.152,11.221-3.669,14.25
		c-6.549,3.861-13.333,7.317-20.308,10.304C229.049,478.82,227.641,479.097,226.233,479.119z"/>
</g>
<path d="M266.658,448.101c-4.565,0-8.661-2.923-10.112-7.296l-40.98-122.939l-122.939-40.98c-3.989-1.344-6.805-4.885-7.232-9.045
	c-0.427-4.16,1.643-8.213,5.269-10.304L495.982,22.882c3.627-2.069,8.106-1.877,11.456,0.491c3.413,2.368,5.12,6.506,4.394,10.602
	l-63.997,362.652c-0.555,3.2-2.56,5.973-5.44,7.53c-2.837,1.536-6.25,1.707-9.28,0.448L295.862,345.77l-18.751,93.777
	c-0.939,4.757-4.97,8.277-9.792,8.554C267.106,448.101,266.872,448.101,266.658,448.101z M121.832,264.152l105.532,35.156
	c3.179,1.067,5.696,3.563,6.741,6.741l29.972,89.895l13.461-67.261c0.619-3.157,2.645-5.845,5.504-7.36
	c2.859-1.515,6.208-1.6,9.173-0.384l136.954,58.707l57.683-326.834L121.832,264.152z"/>
<path d="M287.991,341.439c-2.155,0-4.309-0.64-6.208-1.984c-4.778-3.435-5.888-10.09-2.475-14.89l138.426-193.763l-186.211,186.19
	c-4.16,4.16-10.922,4.16-15.082,0s-4.16-10.922,0-15.082L493.763,24.588c3.946-3.947,10.197-4.202,14.442-0.597
	c4.224,3.584,4.992,9.813,1.792,14.335L296.673,336.981C294.604,339.882,291.297,341.439,287.991,341.439z"/>
<path d="M266.658,448.101c-2.219,0-4.458-0.683-6.378-2.133c-4.714-3.541-5.674-10.218-2.133-14.933l63.997-85.33
	c3.563-4.714,10.261-5.653,14.933-2.155c4.714,3.541,5.674,10.218,2.155,14.933l-63.997,85.33
	C273.101,446.608,269.901,448.101,266.658,448.101z"/>
<path d="M26.071,420.22c-2.581,0-5.184-0.939-7.232-2.837c-5.333-4.885-10.56-9.941-15.701-15.082
	c-4.181-4.139-4.181-10.922-0.021-15.082c4.16-4.16,10.922-4.16,15.082,0c4.949,4.928,9.984,9.77,15.103,14.506
	c4.33,3.989,4.608,10.73,0.619,15.061C31.809,419.068,28.951,420.22,26.071,420.22z"/>
<path d="M171.985,489.742c-10.432,0-20.906-0.917-31.145-2.709c-5.802-1.003-9.685-6.549-8.682-12.33
	c1.003-5.781,6.506-9.856,12.351-8.661c9.045,1.579,18.282,2.368,27.476,2.368l4.33-0.064c5.61,0.277,10.794,4.48,10.965,10.368
	c0.171,5.888-4.48,10.794-10.368,10.965L171.985,489.742z M94.399,470.97c-1.643,0-3.307-0.384-4.885-1.195
	c-10.752-5.546-20.948-12.159-30.335-19.711c-4.586-3.691-5.333-10.389-1.643-14.997c3.691-4.586,10.41-5.312,14.997-1.621
	c8.277,6.656,17.279,12.479,26.751,17.365c5.248,2.709,7.296,9.13,4.608,14.378C101.993,468.858,98.26,470.97,94.399,470.97z"/>
<path d="M226.233,479.119c-4.139,0-8.064-2.411-9.792-6.464c-2.325-5.418,0.192-11.69,5.61-14.015
	c6.144-2.624,12.117-5.674,17.877-9.066c5.056-2.987,11.584-1.323,14.613,3.776c2.987,5.056,1.301,11.605-3.776,14.613
	c-6.592,3.882-13.418,7.36-20.308,10.304C229.07,478.841,227.641,479.119,226.233,479.119z"/>
<g>
</g>
<g>
</g>
<g>
</g>
<g>
</g>
<g>
</g>
<g>
</g>
<g>
</g>
<g>
</g>
<g>
</g>
<g>
</g>
<g>
</g>
<g>
</g>
<g>
</g>
<g>
</g>
<g>
</g>
</svg>
